HIERARCHY
ROOT Hips
{
	OFFSET -21.947001 39.810204 44.525997
	CHANNELS 6 Xposition Yposition Zposition Zrotation Xrotation Yrotation
	JOINT Chest
	{
		OFFSET -0.201599 0.334099 6.453201
		CHANNELS 6 Xposition Yposition Zposition Zrotation Xrotation Yrotation
		JOINT Chest2
		{
			OFFSET 0.000000 0.000000 3.568001
			CHANNELS 6 Xposition Yposition Zposition Zrotation Xrotation Yrotation
			JOINT Neck
			{
				OFFSET 0.000000 0.000000 8.296402
				CHANNELS 6 Xposition Yposition Zposition Zrotation Xrotation Yrotation
				JOINT Head
				{
					OFFSET 0.000000 0.000000 2.173901
					CHANNELS 6 Xposition Yposition Zposition Zrotation Xrotation Yrotation
					End Site
					{
						OFFSET 0.000000 0.000000 7.891998
					}
				}
			}
			JOINT LeftCollar
			{
				OFFSET 1.927601 0.221401 6.049000
				CHANNELS 6 Xposition Yposition Zposition Zrotation Xrotation Yrotation
				JOINT LeftShoulder
				{
					OFFSET 4.959700 0.000000 0.000000
					CHANNELS 6 Xposition Yposition Zposition Zrotation Xrotation Yrotation
					JOINT LeftElbow
					{
						OFFSET 0.000000 0.000000 -8.654202
						CHANNELS 6 Xposition Yposition Zposition Zrotation Xrotation Yrotation
						JOINT LeftWrist
						{
							OFFSET 0.000000 0.000000 -13.864101
							CHANNELS 6 Xposition Yposition Zposition Zrotation Xrotation Yrotation
							End Site
							{
								OFFSET 0.000000 0.000000 -2.173901
							}
						}
					}
				}
			}
			JOINT RightCollar
			{
				OFFSET -3.155701 -0.764999 6.687801
				CHANNELS 6 Xposition Yposition Zposition Zrotation Xrotation Yrotation
				JOINT RightShoulder
				{
					OFFSET -3.592899 0.000000 0.000000
					CHANNELS 6 Xposition Yposition Zposition Zrotation Xrotation Yrotation
					JOINT RightElbow
					{
						OFFSET 0.000000 0.000000 -10.352398
						CHANNELS 6 Xposition Yposition Zposition Zrotation Xrotation Yrotation
						JOINT RightWrist
						{
							OFFSET 0.000000 0.000000 -12.750301
							CHANNELS 6 Xposition Yposition Zposition Zrotation Xrotation Yrotation
							End Site
							{
								OFFSET 0.000000 0.000000 -2.173901
							}
						}
					}
				}
			}
		}
	}
	JOINT LeftHip
	{
		OFFSET 2.460600 -0.518101 -2.735500
		CHANNELS 6 Xposition Yposition Zposition Zrotation Xrotation Yrotation
		JOINT LeftKnee
		{
			OFFSET 0.000000 -0.000004 -17.005899
			CHANNELS 6 Xposition Yposition Zposition Zrotation Xrotation Yrotation
			JOINT LeftAnkle
			{
				OFFSET 0.000000 0.000000 -19.194401
				CHANNELS 6 Xposition Yposition Zposition Zrotation Xrotation Yrotation
				End Site
				{
					OFFSET 0.000000 -8.134600 0.000000
				}
			}
		}
	}
	JOINT RightHip
	{
		OFFSET -3.115499 -0.679600 -2.320301
		CHANNELS 6 Xposition Yposition Zposition Zrotation Xrotation Yrotation
		JOINT RightKnee
		{
			OFFSET 0.000000 -0.000004 -17.680401
			CHANNELS 6 Xposition Yposition Zposition Zrotation Xrotation Yrotation
			JOINT RightAnkle
			{
				OFFSET 0.000000 0.000000 -16.993797
				CHANNELS 6 Xposition Yposition Zposition Zrotation Xrotation Yrotation
				End Site
				{
					OFFSET 0.000000 -8.842300 0.000000
				}
			}
		}
	}
}
MOTION
Frames: 9
Frame Time: 0.041667
-19.079000 64.303009 5.861092 4022.949073 -47.152050 -22.086808 -0.201602 0.334105 6.453205 -28.050550 34.512338 15.250236 -0.000007 0.000005 3.567997 3.078505 -7.536515 -0.631614 0.000000 0.000010 8.296397 86.834913 -52.106816 286.544877 -0.000001 0.000004 2.173901 33.583104 -53.266805 25.229387 1.927604 0.221407 6.048997 -23.945832 3.547858 14.919408 4.959702 0.000003 0.000006 160.546410 188.171356 59.546457 0.000004 -0.000005 -8.654199 59.426061 -48.657506 38.478984 -0.000003 -0.000009 -13.864097 3835.795770 -146.928461 272.104819 -3.155703 -0.764996 6.687802 48.252582 15.378823 -12.372016 -3.592902 -0.000002 0.000010 22.386266 -12.195987 94.192803 -0.000002 -0.000005 -10.352398 -132.135515 -119.114073 -124.976916 0.000001 0.000004 -12.750298 115.994794 11.848824 77.839937 2.460601 -0.518099 -2.735499 100.046330 -28.658080 74.518655 -0.000004 -0.000004 -17.005894 -330.700957 165.559933 -108.199417 -0.000002 0.000006 -19.194397 377.283148 53.220407 116.792792 -3.115494 -0.679596 -2.320297 -110.869734 -36.817814 -95.931421 -0.000003 -0.000007 -17.680393 -40.604416 176.331797 -254.448316 0.000007 -0.000006 -16.993793 315.624408 49.881428 -76.651402
-19.115604 64.310097 5.827198 4023.269054 -47.484411 -21.985095 -0.201599 0.334102 6.453196 -28.814208 34.428812 15.572157 0.000000 0.000005 3.567997 3.192345 -7.537413 -0.623157 -0.000004 0.000006 8.296392 86.515267 -51.394991 286.804342 -0.000002 -0.000002 2.173911 33.473084 -53.354914 25.048535 1.927595 0.221408 6.049003 -23.969970 3.582483 15.096190 4.959698 -0.000005 -0.000001 159.945969 188.861957 60.195065 0.000000 -0.000006 -8.654193 56.434042 -48.890091 34.689991 0.000006 -0.000001 -13.864095 3840.149169 -147.644702 272.356225 -3.155708 -0.764997 6.687800 48.040252 15.217059 -12.379907 -3.592901 -0.000002 0.000004 22.927352 -12.901473 92.160719 -0.000002 -0.000000 -10.352398 -137.419171 -119.491059 -129.399532 -0.000000 -0.000003 -12.750298 113.625647 10.374496 78.919708 2.460598 -0.518100 -2.735506 99.930503 -28.625138 74.617146 0.000001 0.000005 -17.005896 -330.127385 165.074088 -108.350795 0.000001 0.000005 -19.194401 376.734219 53.266900 118.585130 -3.115496 -0.679593 -2.320306 -108.815357 -37.905996 -94.927677 -0.000003 -0.000005 -17.680393 -41.437860 175.462533 -251.723507 0.000000 -0.000007 -16.993797 319.682168 50.583059 -78.656807
-19.152706 64.315201 5.799900 4023.582478 -47.777207 -21.881121 -0.201590 0.334105 6.453200 -29.581293 34.314334 15.931286 -0.000010 0.000004 3.567997 3.302742 -7.546956 -0.616219 -0.000007 0.000002 8.296406 86.239505 -50.820470 287.048426 -0.000000 0.000010 2.173901 33.337839 -53.519955 25.049977 1.927601 0.221395 6.049002 -23.972029 3.626963 15.217035 4.959700 -0.000006 0.000002 158.821487 190.628544 60.727881 0.000005 -0.000010 -8.654194 57.203357 -46.883849 34.760930 0.000007 -0.000003 -13.864101 3840.561384 -148.083870 272.498484 -3.155709 -0.764999 6.687800 47.823991 15.044629 -12.373918 -3.592904 -0.000003 0.000006 23.492700 -13.486562 90.064227 -0.000007 -0.000007 -10.352394 -142.200167 -119.955621 -133.427172 0.000003 -0.000010 -12.750290 111.184545 9.155601 79.608061 2.460600 -0.518101 -2.735499 99.976197 -28.477608 74.899458 -0.000004 -0.000005 -17.005894 -329.748528 164.706556 -108.379119 -0.000000 0.000009 -19.194397 376.694550 53.355297 119.984581 -3.115492 -0.679598 -2.320297 -106.826221 -38.911342 -94.010430 0.000004 -0.000010 -17.680395 -42.176415 174.597940 -249.165765 0.000006 -0.000007 -16.993795 323.461175 51.021694 -81.089570
-19.188107 64.319504 5.776905 4023.919070 -48.039343 -21.740424 -0.201590 0.334104 6.453202 -30.342224 34.185196 16.296975 -0.000005 0.000012 3.567997 3.404786 -7.566278 -0.611134 -0.000009 0.000006 8.296396 86.033780 -50.397254 287.291226 -0.000005 -0.000003 2.173903 33.213489 -53.714892 25.218798 1.927592 0.221399 6.048996 -23.961977 3.680472 15.316028 4.959697 0.000005 0.000009 158.732695 190.227257 61.509152 0.000004 -0.000003 -8.654200 58.876395 -45.617956 33.643644 0.000001 -0.000003 -13.864103 3841.858793 -148.480854 272.417478 -3.155712 -0.764997 6.687798 47.637861 14.884584 -12.397050 -3.592903 -0.000000 0.000004 24.160737 -13.964323 87.947257 -0.000005 -0.000010 -10.352398 -146.299715 -120.508811 -136.824289 0.000000 -0.000014 -12.750294 108.526795 8.246456 79.853046 2.460613 -0.518104 -2.735502 100.155421 -28.240614 75.257046 0.000002 -0.000007 -17.005894 -329.540153 164.515502 -108.391216 -0.000001 0.000005 -19.194401 376.793423 53.459300 121.028193 -3.115486 -0.679599 -2.320296 -104.940515 -39.820170 -93.192030 0.000000 -0.000003 -17.680397 -42.810786 173.770367 -246.826262 0.000008 -0.000013 -16.993792 326.866107 51.344885 -83.364863
-19.220898 64.324409 5.755802 4024.309428 -48.281064 -21.524124 -0.201605 0.334091 6.453195 -31.085188 34.062737 16.633529 -0.000003 0.000006 3.568003 3.490952 -7.595381 -0.608438 0.000013 0.000009 8.296398 85.889499 -50.091839 287.548314 0.000001 0.000000 2.173903 33.121998 -53.907077 25.500858 1.927613 0.221402 6.048998 -23.946624 3.740235 15.412855 4.959698 -0.000001 0.000004 158.581556 189.810588 62.245870 0.000005 -0.000005 -8.654206 60.553220 -44.418462 32.570973 0.000002 -0.000004 -13.864100 3843.153141 -148.902236 272.353438 -3.155695 -0.764997 6.687798 47.499967 14.747847 -12.471660 -3.592897 -0.000010 0.000003 24.730754 -14.316310 85.869958 -0.000003 -0.000008 -10.352388 -149.923499 -121.080826 -139.784138 0.000002 -0.000010 -12.750299 105.681980 7.714980 79.689531 2.460597 -0.518112 -2.735509 100.454884 -27.938199 75.751012 -0.000005 0.000002 -17.005896 -329.513734 164.487225 -108.351901 0.000001 0.000003 -19.194397 376.925055 53.625004 121.706485 -3.115501 -0.679608 -2.320305 -103.236902 -40.582426 -92.531619 0.000000 -0.000007 -17.680401 -43.283978 173.024442 -244.784472 0.000003 -0.000004 -16.993793 329.856719 51.578023 -85.433721
-19.250605 64.331100 5.733997 4024.784591 -48.513512 -21.197490 -0.201597 0.334097 6.453195 -31.820287 33.961907 16.914345 0.000003 0.000001 3.567997 3.566613 -7.631396 -0.607004 -0.000010 0.000005 8.296408 85.806130 -49.867563 287.836794 0.000004 -0.000003 2.173911 33.074587 -54.068522 25.855640 1.927597 0.221410 6.049001 -23.945069 3.794772 15.548075 4.959695 -0.000002 0.000005 158.359015 189.361435 62.919095 0.000003 -0.000003 -8.654202 62.262215 -43.266369 31.552564 0.000005 -0.000007 -13.864096 3844.237228 -149.217094 271.780057 -3.155718 -0.764992 6.687801 47.418612 14.653575 -12.611764 -3.592898 -0.000002 0.000007 25.303233 -14.562745 83.803334 -0.000004 -0.000006 -10.352392 -153.123743 -121.730254 -142.361155 -0.000003 -0.000004 -12.750299 102.573937 7.778254 79.504734 2.460597 -0.518107 -2.735506 100.734792 -27.604076 76.306477 -0.000003 0.000001 -17.005898 -329.590560 164.532973 -108.355917 -0.000006 0.000001 -19.194401 376.987838 53.870020 122.033105 -3.115496 -0.679595 -2.320305 -101.691347 -41.231137 -92.015885 -0.000007 -0.000005 -17.680399 -43.646548 172.358048 -242.914804 0.000001 -0.000002 -16.993793 332.563714 51.823968 -87.396539
-19.275303 64.340103 5.712395 4025.321826 -48.721081 -20.775176 -0.201599 0.334100 6.453205 -32.476907 33.896313 17.088597 -0.000007 0.000009 3.568000 3.626668 -7.664755 -0.606125 0.000004 0.000008 8.296397 85.752854 -49.662101 288.137541 -0.000009 -0.000006 2.173898 33.077506 -54.178379 26.183098 1.927599 0.221406 6.048997 -23.994618 3.821866 15.739498 4.959706 -0.000005 0.000006 156.887287 191.687456 63.138494 -0.000001 -0.000006 -8.654198 61.062185 -42.196017 30.906876 0.000000 -0.000003 -13.864100 3845.417048 -149.960874 271.883931 -3.155705 -0.765001 6.687801 47.395967 14.620689 -12.809049 -3.592906 -0.000001 0.000007 25.843481 -14.703763 81.901051 -0.000004 0.000000 -10.352393 -155.797476 -122.410473 -144.467380 -0.000000 -0.000010 -12.750296 98.732905 8.494881 79.317498 2.460599 -0.518103 -2.735497 101.207195 -26.868866 77.010321 -0.000003 -0.000000 -17.005898 -330.312374 165.065031 -108.322921 -0.000004 -0.000002 -19.194399 377.629220 53.978913 122.775082 -3.115503 -0.679596 -2.320296 -100.539606 -41.408507 -91.811020 -0.000011 -0.000013 -17.680401 -43.472382 171.912050 -241.544886 0.000001 -0.000006 -16.993790 334.669215 51.998852 -89.032568
-19.295103 64.352898 5.689796 4025.921135 -48.916210 -20.254841 -0.201598 0.334105 6.453197 -33.081560 33.874364 17.152482 0.000007 0.000016 3.567992 3.694337 -7.693761 -0.603657 0.000000 0.000003 8.296401 85.836784 -49.609781 288.407470 0.000001 -0.000007 2.173910 33.690086 -54.013959 27.180101 1.927590 0.221406 6.048994 -24.097102 3.815639 15.997302 4.959700 -0.000002 0.000003 156.254525 192.012546 63.476438 0.000002 -0.000008 -8.654196 61.754028 -41.160622 30.058816 -0.000004 0.000000 -13.864091 3846.442997 -150.528750 271.651295 -3.155710 -0.765001 6.687800 47.392125 14.642117 -12.999201 -3.592898 -0.000001 0.000002 26.363033 -14.836446 80.097123 -0.000005 -0.000001 -10.352386 -158.267053 -123.059245 -146.297133 -0.000002 -0.000005 -12.750297 94.985720 9.125840 79.427566 2.460588 -0.518100 -2.735504 101.402436 -26.678149 77.616248 0.000002 -0.000007 -17.005898 -330.408133 165.274308 -108.429219 -0.000003 0.000005 -19.194397 377.741536 54.231118 122.984755 -3.115501 -0.679596 -2.320301 -99.502175 -41.749805 -91.663550 0.000001 -0.000009 -17.680393 -44.251187 170.454542 -240.440745 -0.000003 0.000006 -16.993795 337.487488 52.732226 -89.014946
-19.310801 64.369698 5.666504 4026.558473 -49.107838 -19.654324 -0.201600 0.334100 6.453191 -33.636206 33.908942 17.116329 -0.000001 0.000005 3.568000 3.774494 -7.715376 -0.599364 0.000000 0.000013 8.296396 86.060063 -49.725953 288.613468 -0.000003 0.000006 2.173897 34.925643 -53.526929 28.914574 1.927598 0.221406 6.048998 -24.218124 3.784134 16.266994 4.959702 0.000000 -0.000002 155.599564 192.259047 63.751258 0.000001 -0.000003 -8.654205 62.369565 -40.113476 29.239705 -0.000008 -0.000007 -13.864092 3847.436161 -151.051491 271.408604 -3.155704 -0.764999 6.687797 47.358660 14.677588 -13.114452 -3.592907 -0.000008 0.000005 26.870700 -14.972618 78.328992 -0.000003 -0.000000 -10.352392 -160.541862 -123.640945 -147.845701 -0.000005 -0.000008 -12.750296 91.138281 9.550045 79.802025 2.460597 -0.518101 -2.735504 101.526828 -26.556797 78.319682 -0.000006 -0.000009 -17.005894 -330.509985 165.472548 -108.530750 -0.000002 0.000008 -19.194397 377.918328 54.447553 123.236092 -3.115499 -0.679595 -2.320310 -98.658784 -41.949816 -91.659178 -0.000012 -0.000014 -17.680401 -45.965746 167.778310 -239.624565 0.000004 -0.000001 -16.993792 341.387663 54.311393 -86.709989
